<?xml version="1.0" standalone="no"?><!DOCTYPE svg PUBLIC "-//W3C//DTD SVG 1.1//EN" "http://www.w3.org/Graphics/SVG/1.1/DTD/svg11.dtd"><svg t="1704189452104" class="icon" viewBox="0 0 1024 1024" version="1.1" xmlns="http://www.w3.org/2000/svg" p-id="1321" xmlns:xlink="http://www.w3.org/1999/xlink" width="200" height="200"><path d="M445.098667 810.666667a34.133333 34.133333 0 0 1-34.133334-34.133334l4.437334-443.733333-103.338667 105.301333a34.133333 34.133333 0 1 1-48.896-47.701333l162.816-166.741333A34.133333 34.133333 0 0 1 484.522667 247.466667l-5.290667 529.066666a34.133333 34.133333 0 0 1-34.133333 34.133334zM573.610667 810.666667a35.157333 35.157333 0 0 1-13.056-2.56 34.133333 34.133333 0 0 1-21.077334-31.573334l5.290667-529.066666a34.133333 34.133333 0 0 1 34.133333-34.133334 34.133333 34.133333 0 0 1 34.133334 34.133334l-4.437334 443.733333 103.338667-105.301333a34.133333 34.133333 0 1 1 48.896 47.701333L598.016 800.341333A34.133333 34.133333 0 0 1 573.610667 810.666667z" p-id="1322"></path><path d="M512 983.125333A471.125333 471.125333 0 1 1 981.333333 512a470.784 470.784 0 0 1-469.333333 471.125333z m0-873.984A402.858667 402.858667 0 1 0 913.066667 512a402.432 402.432 0 0 0-401.066667-402.858667z" fill="#333333" p-id="1323"></path></svg>