<?xml version="1.0" standalone="no"?><!DOCTYPE svg PUBLIC "-//W3C//DTD SVG 1.1//EN" "http://www.w3.org/Graphics/SVG/1.1/DTD/svg11.dtd"><svg t="1703967685999" class="icon" viewBox="0 0 1024 1024" version="1.1" xmlns="http://www.w3.org/2000/svg" p-id="945" xmlns:xlink="http://www.w3.org/1999/xlink" width="200" height="200"><path d="M94.814815 94.814815m142.222222 0l549.925926 0q142.222222 0 142.222222 142.222222l0 549.925926q0 142.222222-142.222222 142.222222l-549.925926 0q-142.222222 0-142.222222-142.222222l0-549.925926q0-142.222222 142.222222-142.222222Z" p-id="946"></path><path d="M651.567407 246.518519a44.069926 44.069926 0 0 1 34.740149 17.199407l103.964444 135.68a44.439704 44.439704 0 0 1-2.180741 56.661333L563.351704 706.56a43.757037 43.757037 0 0 1-32.559408 14.573037 43.757037 43.757037 0 0 1-32.568889-14.573037L273.483852 456.059259a44.430222 44.430222 0 0 1-2.180741-56.670815l103.954963-135.670518A44.069926 44.069926 0 0 1 410.007704 246.518519z m-246.518518 156.956444a20.148148 20.148148 0 0 0-1.72563 28.520296l94.919111 103.253334A45.653333 45.653333 0 0 0 531.844741 549.925926c12.8 0 25.012148-5.328593 33.60237-14.677333l92.918519-101.072593c7.661037-8.343704 6.997333-21.229037-1.488593-28.766815a20.92563 20.92563 0 0 0-29.231407 1.460148L534.755556 507.941926a3.925333 3.925333 0 0 1-5.764741 0L434.062222 404.688593a20.92563 20.92563 0 0 0-29.003852-1.21363z" fill="#FEFEFE" fill-opacity=".471" p-id="947"></path><path d="M623.122963 227.555556a44.069926 44.069926 0 0 1 34.740148 17.199407l103.964445 135.68a44.439704 44.439704 0 0 1-2.180741 56.661333L534.907259 687.597037a43.757037 43.757037 0 0 1-32.559407 14.573037 43.757037 43.757037 0 0 1-32.568889-14.573037L245.039407 437.096296a44.430222 44.430222 0 0 1-2.18074-56.670815l103.954963-135.670518A44.069926 44.069926 0 0 1 381.563259 227.555556z m-246.518519 156.956444a20.148148 20.148148 0 0 0-1.725629 28.520296l94.919111 103.253334A45.653333 45.653333 0 0 0 503.400296 530.962963c12.8 0 25.012148-5.328593 33.602371-14.677333l92.918518-101.072593c7.661037-8.343704 6.997333-21.229037-1.488592-28.766815a20.92563 20.92563 0 0 0-29.231408 1.460148L506.311111 488.978963a3.925333 3.925333 0 0 1-5.764741 0L405.617778 385.72563a20.92563 20.92563 0 0 0-29.003852-1.21363z" fill="#FEFEFE" p-id="948"></path><path d="M237.037037 824.888889c0 15.710815 129.46963 28.444444 289.185185 28.444444S815.407407 840.599704 815.407407 824.888889s-129.46963-28.444444-289.185185-28.444445S237.037037 809.178074 237.037037 824.888889z" fill="#FFFFFF" opacity=".413" p-id="949"></path></svg>