<svg t="1704195469294" class="icon" viewBox="0 0 1024 1024" version="1.1" xmlns="http://www.w3.org/2000/svg" p-id="9502" width="200" height="200"><path d="M635.562667 339.285333H388.736c-7.381333 0-19.2 2.218667-29.525333 9.429334-10.88 7.637333-19.541333 20.48-19.925334 39.808v247.04a49.493333 49.493333 0 0 0 98.901334 0V508.16l162.432 162.432a49.493333 49.493333 0 0 0 69.930666-69.973333l-162.432-162.389334h127.445334a49.450667 49.450667 0 1 0 0-98.901333z" p-id="9503" data-spm-anchor-id="a313x.search_index.0.i5.57293a81w7Fq51" class="selected"></path><path d="M512 74.666667C270.506667 74.666667 74.666667 270.506667 74.666667 512S270.506667 949.333333 512 949.333333 949.333333 753.493333 949.333333 512 753.493333 74.666667 512 74.666667zM173.568 512a338.432 338.432 0 1 1 676.864 0 338.432 338.432 0 0 1-676.864 0z" p-id="9504" data-spm-anchor-id="a313x.search_index.0.i4.57293a81w7Fq51" class="selected"></path></svg>